<svg width="16" height="20" viewBox="0 0 16 20" fill="none" xmlns="http://www.w3.org/2000/svg">
<path d="M3.31543 19.1816H12.6846C14.5742 19.1816 15.5498 18.1885 15.5498 16.29V8.30957C15.5498 7.0791 15.3916 6.5166 14.627 5.73438L10.0303 1.06738C9.2832 0.311523 8.66797 0.135742 7.56055 0.135742H3.31543C1.43457 0.135742 0.450195 1.12891 0.450195 3.03613V16.29C0.450195 18.1885 1.43457 19.1816 3.31543 19.1816ZM3.46484 17.4238C2.62109 17.4238 2.19922 16.9844 2.19922 16.1758V3.1416C2.19922 2.3418 2.62109 1.89355 3.47363 1.89355H7.2002V6.6748C7.2002 7.94922 7.82422 8.56445 9.08984 8.56445H13.8008V16.1758C13.8008 16.9844 13.3789 17.4238 12.5264 17.4238H3.46484ZM9.25684 7.02637C8.8877 7.02637 8.72949 6.86816 8.72949 6.50781V2.12207L13.5635 7.02637H9.25684ZM8.77344 15.6221V12.9678L8.70312 11.6055L9.37988 12.3174L10.0391 12.9941C10.1709 13.1348 10.373 13.2227 10.5576 13.2227C10.9619 13.2227 11.2607 12.9414 11.2607 12.5547C11.2607 12.3262 11.1729 12.168 11.0059 12.0186L8.58887 9.80371C8.38672 9.61914 8.21973 9.53125 8 9.53125C7.78027 9.53125 7.61328 9.61914 7.41113 9.80371L4.99414 12.0186C4.82715 12.168 4.73926 12.3262 4.73926 12.5547C4.73926 12.9414 5.03809 13.2227 5.44238 13.2227C5.62695 13.2227 5.8291 13.1348 5.96094 12.9941L6.62012 12.3174L7.29688 11.6055L7.22656 12.9678V15.6221C7.22656 16.0439 7.57812 16.3691 8 16.3691C8.42188 16.3691 8.77344 16.0439 8.77344 15.6221Z" fill="#1C1C1E"/>
</svg>
