<svg width="24" height="24" viewBox="0 0 24 24" fill="none" xmlns="http://www.w3.org/2000/svg">
<path d="M12.2834 10.8732C11.5336 10.8653 10.8029 10.6358 10.1833 10.2135C9.56366 9.79114 9.08283 9.19494 8.80135 8.49992C8.51986 7.80491 8.45029 7.04214 8.6014 6.30767C8.75251 5.5732 9.11754 4.89985 9.65054 4.3724C10.1835 3.84496 10.8607 3.48699 11.5967 3.34358C12.3327 3.20017 13.0947 3.27772 13.7867 3.56648C14.4788 3.85523 15.0699 4.34227 15.4857 4.96628C15.9015 5.59029 16.1234 6.32337 16.1234 7.07323C16.1164 8.08581 15.7083 9.05432 14.9885 9.76658C14.2688 10.4788 13.296 10.8768 12.2834 10.8732ZM12.2834 4.60656C11.7974 4.61445 11.3244 4.76579 10.9241 5.04157C10.5238 5.31736 10.2138 5.7053 10.0333 6.15666C9.85268 6.60803 9.8095 7.10268 9.90915 7.5785C10.0088 8.05433 10.2468 8.49009 10.5933 8.83107C10.9398 9.17205 11.3794 9.40304 11.8567 9.49502C12.3341 9.587 12.828 9.53587 13.2764 9.34805C13.7248 9.16024 14.1077 8.84412 14.377 8.43939C14.6463 8.03466 14.79 7.55937 14.7901 7.07323C14.7831 6.41427 14.5154 5.7849 14.0457 5.32268C13.576 4.86047 12.9424 4.603 12.2834 4.60656Z" fill="#B3B3B3"/>
<path d="M12.2831 10.8732C11.5333 10.8653 10.8026 10.6358 10.183 10.2135C9.56334 9.79114 9.08252 9.19494 8.80103 8.49992C8.51954 7.80491 8.44997 7.04214 8.60108 6.30767C8.75219 5.5732 9.11723 4.89985 9.65022 4.3724C10.1832 3.84496 10.8604 3.48699 11.5964 3.34358C12.3324 3.20017 13.0944 3.27772 13.7864 3.56648C14.4784 3.85523 15.0696 4.34227 15.4854 4.96628C15.9012 5.59029 16.1231 6.32337 16.1231 7.07323C16.1161 8.08581 15.708 9.05432 14.9882 9.76658C14.2684 10.4788 13.2957 10.8768 12.2831 10.8732ZM12.2831 4.60656C11.797 4.61445 11.3241 4.76579 10.9238 5.04157C10.5234 5.31736 10.2135 5.7053 10.0329 6.15666C9.85236 6.60803 9.80918 7.10268 9.90883 7.5785C10.0085 8.05433 10.2465 8.49009 10.593 8.83107C10.9395 9.17205 11.3791 9.40304 11.8564 9.49502C12.3338 9.587 12.8277 9.53587 13.2761 9.34805C13.7245 9.16024 14.1074 8.84412 14.3767 8.43939C14.646 8.03466 14.7897 7.55937 14.7898 7.07323C14.7828 6.41427 14.5151 5.7849 14.0454 5.32268C13.5757 4.86047 12.9421 4.603 12.2831 4.60656ZM14.6098 11.7666C11.6528 11.252 8.6087 11.7203 5.94312 13.0999C5.75391 13.205 5.59723 13.36 5.49023 13.5482C5.38323 13.7363 5.33003 13.9502 5.33646 14.1666V16.5399C5.33646 16.7167 5.4067 16.8863 5.53172 17.0113C5.65674 17.1363 5.82631 17.2066 6.00312 17.2066C6.17994 17.2066 6.3495 17.1363 6.47453 17.0113C6.59955 16.8863 6.66979 16.7167 6.66979 16.5399V14.2532C9.14157 13.013 11.9524 12.6195 14.6698 13.1332L14.6098 11.7666Z" fill="#B3B3B3"/>
<path d="M22.0052 14.669H17.5385V13.6823C17.5385 13.5055 17.4683 13.3359 17.3433 13.2109C17.2183 13.0859 17.0487 13.0156 16.8719 13.0156C16.6951 13.0156 16.5255 13.0859 16.4005 13.2109C16.2754 13.3359 16.2052 13.5055 16.2052 13.6823V14.669H11.3385C11.1617 14.669 10.9922 14.7392 10.8671 14.8642C10.7421 14.9892 10.6719 15.1588 10.6719 15.3356V22.0023C10.6719 22.1791 10.7421 22.3487 10.8671 22.4737C10.9922 22.5987 11.1617 22.669 11.3385 22.669H22.0052C22.182 22.669 22.3516 22.5987 22.4766 22.4737C22.6016 22.3487 22.6719 22.1791 22.6719 22.0023V15.3356C22.6719 15.1588 22.6016 14.9892 22.4766 14.8642C22.3516 14.7392 22.182 14.669 22.0052 14.669ZM21.3385 21.3356H12.0052V16.0023H16.2052V16.2756C16.2052 16.4524 16.2754 16.622 16.4005 16.747C16.5255 16.8721 16.6951 16.9423 16.8719 16.9423C17.0487 16.9423 17.2183 16.8721 17.3433 16.747C17.4683 16.622 17.5385 16.4524 17.5385 16.2756V16.0023H21.3385V21.3356Z" fill="#B3B3B3"/>
<path d="M14.5426 18.2788H18.5159V19.2121H14.5426V18.2788ZM7.22927 8.15878C5.38357 8.18966 3.56987 8.64593 1.92927 9.49211C1.75085 9.58636 1.60139 9.72732 1.49688 9.89994C1.39237 10.0726 1.33674 10.2703 1.33594 10.4721V12.5388C1.33594 12.7156 1.40618 12.8852 1.5312 13.0102C1.65622 13.1352 1.82579 13.2054 2.0026 13.2054C2.17942 13.2054 2.34898 13.1352 2.47401 13.0102C2.59903 12.8852 2.66927 12.7156 2.66927 12.5388V10.6054C4.2368 9.82519 5.97231 9.44283 7.7226 9.49211C7.4936 9.07429 7.32738 8.62503 7.22927 8.15878ZM22.0759 9.48544C20.6045 8.71358 18.9874 8.25934 17.3293 8.15211C17.2316 8.61754 17.0677 9.06655 16.8426 9.48544C18.4047 9.52283 19.9391 9.9053 21.3359 10.6054V12.5388C21.3359 12.7156 21.4062 12.8852 21.5312 13.0102C21.6562 13.1352 21.8258 13.2054 22.0026 13.2054C22.1794 13.2054 22.349 13.1352 22.474 13.0102C22.599 12.8852 22.6693 12.7156 22.6693 12.5388V10.4721C22.6697 10.2692 22.6146 10.07 22.51 9.89613C22.4055 9.72223 22.2554 9.58022 22.0759 9.48544ZM7.10927 7.07211V6.62544C6.58702 6.55555 6.11184 6.28693 5.78265 5.87551C5.45347 5.46408 5.29564 4.94155 5.34203 4.41668C5.38842 3.89182 5.63544 3.40506 6.03168 3.05775C6.42793 2.71043 6.94285 2.52932 7.46927 2.55211C8.01682 2.55112 8.5431 2.76402 8.93594 3.14544C9.28253 2.85956 9.66321 2.61772 10.0693 2.42544C9.61568 1.90388 9.01469 1.532 8.34553 1.35882C7.67636 1.18564 6.97043 1.21929 6.32077 1.45534C5.67111 1.69138 5.10822 2.11874 4.70629 2.68108C4.30436 3.24342 4.08227 3.91435 4.06927 4.60544C4.08326 5.45128 4.41207 6.26152 4.99147 6.87791C5.57087 7.49429 6.35925 7.87254 7.2026 7.93878C7.14605 7.6532 7.11482 7.36318 7.10927 7.07211ZM16.5159 1.21878C16.0578 1.21888 15.6043 1.31031 15.1819 1.48774C14.7595 1.66517 14.3767 1.92502 14.0559 2.25211C14.5066 2.41542 14.9328 2.63973 15.3226 2.91878C15.6338 2.70273 15.9979 2.5752 16.3759 2.54978C16.7539 2.52437 17.1317 2.60202 17.4691 2.77446C17.8064 2.9469 18.0907 3.20766 18.2915 3.52894C18.4923 3.85022 18.6021 4.21998 18.6093 4.59878C18.6051 4.98787 18.4908 5.36781 18.2796 5.69463C18.0684 6.02144 17.769 6.28176 17.4159 6.44544C17.4428 6.65102 17.4561 6.85813 17.4559 7.06544C17.4542 7.33342 17.4319 7.60087 17.3893 7.86544C18.1155 7.67873 18.7597 7.25716 19.2215 6.66635C19.6833 6.07554 19.9368 5.34863 19.9426 4.59878C19.9338 3.69698 19.5685 2.83531 18.9264 2.202C18.2844 1.56869 17.4178 1.21521 16.5159 1.21878Z" fill="#B3B3B3"/>
</svg>
