<svg width="24" height="24" viewBox="0 0 24 24" fill="none" xmlns="http://www.w3.org/2000/svg">
<path fill-rule="evenodd" clip-rule="evenodd" d="M4.92905 16.2423C4.148 17.0233 4.148 18.2896 4.92905 19.0707C5.7101 19.8517 6.97643 19.8517 7.75748 19.0707L12.0001 14.8281L16.2428 19.0707C17.0238 19.8518 18.2901 19.8518 19.0712 19.0707C19.8522 18.2897 19.8522 17.0233 19.0712 16.2423L14.8285 11.9996L19.0712 7.75699C19.8522 6.97594 19.8522 5.70961 19.0712 4.92856C18.2901 4.14751 17.0238 4.14751 16.2428 4.92856L12.0001 9.17121L7.75748 4.92858C6.97643 4.14753 5.7101 4.14753 4.92905 4.92858C4.148 5.70962 4.148 6.97595 4.92905 7.757L9.17168 11.9996L4.92905 16.2423Z" fill="white"/>
</svg>
