<svg width="132" height="132" viewBox="0 0 132 132" fill="none" xmlns="http://www.w3.org/2000/svg">
<path d="M44.4179 39.93L44.9404 40.3865L91.6134 87.054C92.2252 87.6651 92.6842 88.4118 92.9532 89.2335C93.2223 90.0553 93.2939 90.9289 93.1621 91.7834C93.0303 92.638 92.6988 93.4494 92.1947 94.1519C91.6905 94.8544 91.0279 95.4281 90.2604 95.8265L89.6224 96.1015L32.5049 117.15C21.7689 121.11 11.3134 111.018 14.5749 100.298L14.8499 99.495L35.8929 42.3775C36.1711 41.6209 36.6123 40.9347 37.1851 40.3675C37.7579 39.8002 38.4484 39.3659 39.2077 39.0951C39.967 38.8243 40.7765 38.7238 41.579 38.8006C42.3815 38.8774 43.1573 39.1296 43.8514 39.5395L44.4179 39.93ZM94.0884 63.822C99.0989 64.086 105.968 65.142 111.941 68.728C113.152 69.4459 114.042 70.6007 114.427 71.9547C114.812 73.3088 114.663 74.7589 114.011 76.0065C113.359 77.2541 112.254 78.2042 110.922 78.6612C109.591 79.1182 108.135 79.0472 106.854 78.463L106.282 78.1605C102.531 75.9055 97.7349 75.0255 93.5109 74.8055C91.7705 74.7048 90.0255 74.7121 88.2859 74.8275L86.5479 74.998C85.1132 75.1831 83.6633 74.7956 82.5122 73.9192C81.3612 73.0429 80.6019 71.7483 80.3986 70.316C80.1953 68.8837 80.5645 67.429 81.4263 66.267C82.288 65.1051 83.5728 64.3294 85.0024 64.108C88.0147 63.7189 91.0574 63.6213 94.0884 63.8165M105.226 48.4935C106.627 48.4964 107.975 49.0342 108.993 49.997C110.011 50.9597 110.624 52.2749 110.705 53.6739C110.787 55.0729 110.331 56.4502 109.431 57.5247C108.531 58.5991 107.256 59.2895 105.864 59.455L105.226 59.4935H101.332C99.9306 59.4906 98.5832 58.9528 97.5649 57.99C96.5466 57.0273 95.9342 55.7121 95.8528 54.3131C95.7713 52.9141 96.227 51.5368 97.1267 50.4623C98.0265 49.3879 99.3024 48.6975 100.694 48.532L101.332 48.4935H105.226ZM87.7249 44.275C88.6719 45.2221 89.2408 46.4821 89.3248 47.8188C89.4089 49.1554 89.0023 50.4768 88.1814 51.535L87.7249 52.052L81.8894 57.8875C80.8997 58.8739 79.5715 59.4466 78.1748 59.4893C76.7781 59.5319 75.4175 59.0413 74.3694 58.1171C73.3213 57.1929 72.6643 55.9045 72.5317 54.5134C72.3992 53.1223 72.8012 51.733 73.6559 50.6275L74.1124 50.1105L79.9424 44.2805C80.4532 43.7691 81.0598 43.3635 81.7275 43.0867C82.3952 42.8099 83.1109 42.6674 83.8337 42.6674C84.5565 42.6674 85.2722 42.8099 85.9399 43.0867C86.6076 43.3635 87.2141 43.7636 87.7249 44.275ZM73.4964 15.3175C75.9604 22.7205 74.6404 30.8275 73.1004 36.4925C72.1749 40.0243 70.9038 43.4564 69.3054 46.739C68.6541 48.0445 67.5109 49.0379 66.1272 49.5005C64.7435 49.9631 63.2327 49.8571 61.9272 49.2057C60.6217 48.5544 59.6283 47.4112 59.1657 46.0275C58.7031 44.6438 58.8091 43.133 59.4604 41.8275C60.7358 39.1905 61.749 36.4346 62.4854 33.5995C63.7339 29.0235 64.3609 24.057 63.3984 19.987L63.0629 18.799C62.8232 18.1112 62.7226 17.3826 62.7668 16.6555C62.8109 15.9285 62.9991 15.2174 63.3203 14.5637C63.6415 13.9099 64.0894 13.3265 64.638 12.8472C65.1865 12.368 65.8248 12.0025 66.5157 11.7719C67.2067 11.5414 67.9365 11.4504 68.6629 11.5042C69.3894 11.558 70.0978 11.7555 70.7473 12.0854C71.3967 12.4153 71.9742 12.8708 72.4461 13.4257C72.918 13.9805 73.2751 14.6236 73.4964 15.3175ZM103.279 28.7265C104.31 29.7579 104.889 31.1566 104.889 32.615C104.889 34.0734 104.31 35.4721 103.279 36.5035L99.3904 40.392C98.8831 40.9173 98.2762 41.3363 97.6052 41.6246C96.9341 41.9128 96.2124 42.0645 95.4821 42.0709C94.7519 42.0772 94.0276 41.9381 93.3517 41.6615C92.6758 41.385 92.0617 40.9766 91.5453 40.4602C91.0289 39.9438 90.6205 39.3297 90.3439 38.6537C90.0674 37.9778 89.9282 37.2536 89.9346 36.5233C89.9409 35.793 90.0926 35.0713 90.3809 34.4003C90.6691 33.7293 91.0881 33.1224 91.6134 32.615L95.5019 28.7265C96.5333 27.6954 97.932 27.1162 99.3904 27.1162C100.849 27.1162 102.248 27.6954 103.279 28.7265Z" fill="#D50036"/>
</svg>
