<svg width="20" height="21" viewBox="0 0 20 21" fill="none" xmlns="http://www.w3.org/2000/svg">
<path d="M13.3333 5.49935V4.83268C13.3333 3.89926 13.3333 3.43255 13.1517 3.07603C12.9919 2.76243 12.7369 2.50746 12.4233 2.34767C12.0668 2.16602 11.6001 2.16602 10.6667 2.16602H9.33333C8.39991 2.16602 7.9332 2.16602 7.57668 2.34767C7.26308 2.50746 7.00811 2.76243 6.84832 3.07603C6.66667 3.43255 6.66667 3.89926 6.66667 4.83268V5.49935M8.33333 10.0827V14.2493M11.6667 10.0827V14.2493M2.5 5.49935H17.5M15.8333 5.49935V14.8327C15.8333 16.2328 15.8333 16.9329 15.5608 17.4677C15.3212 17.9381 14.9387 18.3205 14.4683 18.5602C13.9335 18.8327 13.2335 18.8327 11.8333 18.8327H8.16667C6.76654 18.8327 6.06647 18.8327 5.53169 18.5602C5.06129 18.3205 4.67883 17.9381 4.43915 17.4677C4.16667 16.9329 4.16667 16.2328 4.16667 14.8327V5.49935" stroke="#344054" stroke-width="1.66667" stroke-linecap="round" stroke-linejoin="round"/>
</svg>
